<?xml version="1.0" encoding="UTF-8"?>
<svg xmlns="http://www.w3.org/2000/svg" xmlns:xlink="http://www.w3.org/1999/xlink" width="50pt" height="50pt" viewBox="0 0 50 50" version="1.1">
<g id="surface4931828">
<path style=" stroke:none;fill-rule:nonzero;fill:rgb(42.352942%,24.313726%,69.411767%);fill-opacity:1;" d="M 29.171875 6.007812 C 23.777344 6.011719 18.378906 5.996094 12.980469 6.015625 C 11.132812 6.019531 9.691406 6.261719 8.585938 7.140625 C 7.480469 8.019531 6.917969 9.371094 6.5 11.175781 C 4.410156 20.191406 2.335938 29.210938 0.273438 38.230469 C -0.132812 40.003906 -0.175781 41.488281 0.710938 42.585938 C 1.597656 43.679688 3.066406 43.96875 4.941406 43.976562 C 15.734375 44.011719 26.53125 44.007812 37.324219 43.976562 C 38.992188 43.96875 40.398438 43.640625 41.476562 42.796875 C 42.554688 41.953125 43.203125 40.675781 43.566406 39.089844 C 45.664062 29.882812 47.734375 20.671875 49.761719 11.453125 C 50.128906 9.765625 50.15625 8.355469 49.308594 7.316406 C 48.460938 6.277344 47.078125 6.019531 45.367188 6.011719 C 39.964844 5.988281 34.566406 6.003906 29.171875 6.007812 Z M 29.175781 8.007812 C 34.570312 8.003906 39.964844 7.988281 45.355469 8.011719 C 46.851562 8.019531 47.527344 8.296875 47.757812 8.582031 C 47.992188 8.867188 48.128906 9.5625 47.804688 11.023438 C 45.78125 20.238281 43.710938 29.445312 41.613281 38.644531 C 41.3125 39.964844 40.863281 40.734375 40.246094 41.21875 C 39.628906 41.703125 38.730469 41.96875 37.316406 41.972656 C 26.527344 42.007812 15.738281 42.011719 4.945312 41.972656 C 3.296875 41.96875 2.535156 41.65625 2.265625 41.324219 C 1.996094 40.996094 1.871094 40.226562 2.226562 38.675781 C 4.285156 29.65625 6.359375 20.640625 8.449219 11.625 C 8.824219 9.996094 9.257812 9.160156 9.832031 8.707031 C 10.402344 8.253906 11.316406 8.019531 12.988281 8.011719 C 18.378906 7.996094 23.773438 8.011719 29.175781 8.007812 Z M 19.269531 11.003906 C 18.636719 10.957031 17.984375 11.222656 17.332031 11.800781 C 16.007812 12.976562 16.359375 14.132812 17.464844 15.320312 C 19.871094 17.917969 22.09375 20.460938 24.527344 23.191406 C 24.941406 23.65625 25.449219 24.234375 26.058594 24.921875 C 25.59375 25.265625 24.863281 25.828125 24.316406 26.238281 C 20.386719 29.164062 16.4375 32.070312 12.484375 34.964844 C 11.375 35.773438 10.390625 36.632812 11.457031 38.078125 C 12.425781 39.386719 13.566406 39.164062 14.761719 38.277344 C 20.085938 34.332031 25.414062 30.394531 30.773438 26.5 C 32.167969 25.484375 32.464844 24.550781 31.195312 23.183594 C 27.800781 19.519531 24.464844 15.796875 21.125 12.082031 C 20.523438 11.414062 19.902344 11.054688 19.269531 11.007812 Z M 22.75 34 C 21.625 34 21 35 21 36 C 21 37 21.625 38 22.75 38 L 32.25 38 C 33.375 38 34 37 34 36 C 34 35 33.375 34 32.25 34 Z M 22.75 34 "/>
</g>
</svg>
